<svg width="400" height="300" viewBox="0 0 400 300" fill="none" xmlns="http://www.w3.org/2000/svg">
  <!-- Background Elements -->
  <g opacity="0.1">
    <circle cx="50" cy="150" r="40" fill="#6366F1"/>
    <circle cx="350" cy="100" r="30" fill="#6366F1"/>
    <circle cx="200" cy="250" r="25" fill="#6366F1"/>
    <circle cx="300" cy="200" r="15" fill="#6366F1"/>
    <circle cx="100" cy="80" r="20" fill="#6366F1"/>
  </g>
  
  <!-- Bitcoin Logo -->
  <g transform="translate(160, 100) scale(1.5)">
    <circle cx="40" cy="40" r="40" fill="#F7931A"/>
    <path d="M56.29,33.91c0.799-5.331-3.266-8.191-8.826-10.122l1.801-7.216l-4.396-1.099l-1.751,7.022
      c-1.155-0.288-2.34-0.558-3.516-0.826l1.764-7.065l-4.395-1.098l-1.802,7.214c-0.955-0.217-1.893-0.433-2.797-0.659l0.005-0.022
      l-6.041-1.507l-1.167,4.696c0,0,3.266,0.748,3.195,0.794c1.781,0.444,2.104,1.624,2.049,2.56l-2.054,8.224
      c0.123,0.031,0.282,0.076,0.457,0.147c-0.147-0.036-0.304-0.076-0.467-0.115l-2.877,11.52c-0.218,0.543-0.772,1.357-2.017,1.048
      c0.045,0.064-3.196-0.797-3.196-0.797l-2.181,5.028l5.706,1.424c1.059,0.266,2.097,0.544,3.118,0.809l-1.818,7.286l4.395,1.098
      l1.801-7.221c1.198,0.325,2.363,0.625,3.507,0.909l-1.794,7.185l4.396,1.098l1.818-7.274c7.491,1.417,13.121,0.846,15.5-5.932
      c1.919-5.45-0.094-8.596-4.041-10.642C53.262,40.438,55.723,38.122,56.29,33.91z M45.717,48.775
      c-1.363,5.474-10.584,2.515-13.576,1.773l2.423-9.709C37.556,41.579,47.136,43.025,45.717,48.775z M47.084,33.818
      c-1.25,5.009-8.965,2.464-11.465,1.839l2.196-8.802C40.316,27.48,48.388,28.548,47.084,33.818z" fill="white"/>
  </g>
  
  <!-- Ethereum Logo -->
  <g transform="translate(80, 135) scale(0.8)">
    <circle cx="40" cy="40" r="40" fill="#627EEA"/>
    <path d="M40.5,16l-0.31,1.06V51.27l0.31,0.31L59.5,40.5L40.5,16z" fill="white" fill-opacity="0.6"/>
    <path d="M40.5,16L21.5,40.5l19,11.08V16z" fill="white"/>
    <path d="M40.5,56.32l-0.23,0.29v14.31l0.23,0.68L59.5,44.31L40.5,56.32z" fill="white" fill-opacity="0.6"/>
    <path d="M40.5,71.6v-15.28L21.5,44.31L40.5,71.6z" fill="white"/>
    <path d="M40.5,51.58l19-11.08l-19-8.62V51.58z" fill="white" fill-opacity="0.2"/>
    <path d="M21.5,40.5l19,11.08V31.88L21.5,40.5z" fill="white" fill-opacity="0.6"/>
  </g>
  
  <!-- Binance Logo -->
  <g transform="translate(260, 150) scale(0.8)">
    <circle cx="40" cy="40" r="40" fill="#F3BA2F"/>
    <path d="M29.22,40.01l10.78-10.78l10.78,10.78l6.27-6.27L40.01,16.7L22.96,33.74L29.22,40.01z" fill="white"/>
    <path d="M16.7,40.01l6.27-6.27l6.27,6.27l-6.27,6.27L16.7,40.01z" fill="white"/>
    <path d="M29.22,40.01l10.78,10.78l10.78-10.78l6.27,6.27l-17.05,17.04L22.96,46.28L29.22,40.01z" fill="white"/>
    <path d="M57.05,40.01l6.27-6.27l6.27,6.27l-6.27,6.27L57.05,40.01z" fill="white"/>
    <path d="M40.01,40.01l10.78-10.78l0.01,0.01l-10.78,10.78L40.01,40.01z" fill="white"/>
    <path d="M40.01,40.01l-10.78-10.78l0.01-0.01l10.78,10.78L40.01,40.01z" fill="white"/>
    <path d="M40.01,40.01l10.78,10.78l-0.01,0.01l-10.78-10.78L40.01,40.01z" fill="white"/>
    <path d="M40.01,40.01l-10.78,10.78l-0.01-0.01l10.78-10.78L40.01,40.01z" fill="white"/>
  </g>
  
  <!-- Connection Lines -->
  <g opacity="0.3" stroke="#6366F1" stroke-width="1" stroke-dasharray="4,2">
    <line x1="160" y1="150" x2="220" y2="140" />
    <line x1="220" y1="140" x2="280" y2="170" />
    <line x1="120" y1="175" x2="160" y2="150" />
    <line x1="280" y1="170" x2="320" y2="150" />
  </g>
</svg> 