<svg width="60" height="60" viewBox="0 0 60 60" xmlns="http://www.w3.org/2000/svg">
  <defs>
    <pattern id="grid" width="60" height="60" patternUnits="userSpaceOnUse">
      <path d="M 60 0 L 0 0 0 60" fill="none" stroke="white" stroke-width="0.5" stroke-opacity="0.3"/>
      <path d="M 30 0 L 30 60" fill="none" stroke="white" stroke-width="0.3" stroke-opacity="0.2"/>
      <path d="M 0 30 L 60 30" fill="none" stroke="white" stroke-width="0.3" stroke-opacity="0.2"/>
    </pattern>
  </defs>
  
  <rect width="60" height="60" fill="url(#grid)" />
  
  <!-- Bitcoin Symbol -->
  <circle cx="10" cy="10" r="5" fill="white" fill-opacity="0.1"/>
  <path d="M12,8.5c0.2-1.2-0.7-1.8-1.9-2.3l0.4-1.6l-1-0.2l-0.4,1.6c-0.3-0.1-0.5-0.1-0.8-0.2l0.4-1.6l-1-0.2l-0.4,1.6
    c-0.2,0-0.4-0.1-0.6-0.2l0-0l-1.4-0.3l-0.3,1.1c0,0,0.7,0.2,0.7,0.2c0.4,0.1,0.5,0.4,0.5,0.6l-0.5,1.9c0,0,0.1,0,0.1,0
    c0,0-0.1,0-0.1,0l-0.6,2.6c-0.1,0.1-0.2,0.3-0.5,0.2c0,0-0.7-0.2-0.7-0.2l-0.5,1.1l1.3,0.3c0.2,0.1,0.5,0.1,0.7,0.2l-0.4,1.7
    l1,0.2l0.4-1.6c0.3,0.1,0.5,0.1,0.8,0.2l-0.4,1.6l1,0.2l0.4-1.7c1.7,0.3,3,0.2,3.5-1.3c0.4-1.2,0-1.9-0.9-2.4
    C11.3,10.1,11.9,9.6,12,8.5z M9.5,11.6c-0.3,1.2-2.4,0.6-3.1,0.4l0.5-2.2C7.6,10,9.8,10.3,9.5,11.6z M9.8,8.5
    C9.5,9.6,7.8,9.1,7.2,8.9l0.5-2C8.1,7.1,10.1,7.3,9.8,8.5z" fill="white" fill-opacity="0.2"/>
    
  <!-- Ethereum Symbol -->
  <circle cx="50" cy="50" r="5" fill="white" fill-opacity="0.1"/>
  <path d="M50,45l-3,5l3,2v-7z" fill="white" fill-opacity="0.2"/>
  <path d="M50,45l3,5l-3,2v-7z" fill="white" fill-opacity="0.2"/>
  <path d="M50,52v3l-3,-5z" fill="white" fill-opacity="0.1"/>
  <path d="M50,52v3l3,-5z" fill="white" fill-opacity="0.1"/>
    
  <!-- Currency Symbols -->
  <circle cx="10" cy="50" r="4" fill="white" fill-opacity="0.1"/>
  <text x="10" y="52" text-anchor="middle" font-size="6" fill="white" fill-opacity="0.2">$</text>
  
  <circle cx="50" cy="10" r="4" fill="white" fill-opacity="0.1"/>
  <text x="50" y="12" text-anchor="middle" font-size="6" fill="white" fill-opacity="0.2">€</text>
  
  <circle cx="30" cy="30" r="4" fill="white" fill-opacity="0.1"/>
  <text x="30" y="32" text-anchor="middle" font-size="6" fill="white" fill-opacity="0.2">¥</text>
</svg> 